<?xml version="1.0" standalone="no"?>
<!DOCTYPE svg PUBLIC "-//W3C//DTD SVG 20010904//EN"
 "http://www.w3.org/TR/2001/REC-SVG-20010904/DTD/svg10.dtd">
<svg version="1.0" xmlns="http://www.w3.org/2000/svg"
 width="720.000000pt" height="746.000000pt" viewBox="0 0 720.000000 746.000000"
 preserveAspectRatio="xMidYMid meet">
<metadata>
Created by potrace 1.15, written by Peter Selinger 2001-2017
</metadata>
<g transform="translate(0.000000,746.000000) scale(0.100000,-0.100000)"
fill="#000000" stroke="none">
<path d="M1852 6913 c-11 -21 1 -259 23 -483 35 -347 101 -627 207 -867 l40
-93 -126 -214 -126 -214 0 -82 c0 -74 -2 -82 -18 -78 -9 3 -110 64 -224 136
-113 73 -211 132 -217 132 -20 0 -22 -46 -19 -376 3 -376 -6 -332 110 -505
l63 -94 5 -136 c5 -129 7 -139 38 -197 37 -73 39 -105 12 -204 -22 -81 -25
-153 -9 -212 26 -94 171 -192 351 -238 83 -21 110 -40 90 -60 -14 -14 -152
-27 -294 -28 -75 0 -139 -4 -142 -8 -8 -13 6 -26 90 -85 122 -85 222 -133 332
-157 53 -12 111 -25 127 -29 29 -6 30 -8 32 -71 5 -121 6 -123 125 -248 60
-64 114 -127 119 -140 5 -13 9 -94 9 -180 0 -131 3 -163 18 -189 14 -26 306
-289 485 -438 63 -52 77 -80 77 -157 0 -42 6 -74 18 -95 22 -41 451 -433 473
-433 22 0 449 392 471 433 12 21 18 53 18 95 0 77 14 105 77 157 179 149 471
412 486 438 14 26 17 58 17 189 0 86 4 167 9 180 5 13 59 76 119 140 119 125
120 127 125 248 2 73 -14 62 141 95 111 24 202 64 314 138 107 70 135 94 127
108 -4 5 -68 9 -143 9 -142 1 -280 14 -294 28 -20 20 7 39 90 60 188 48 323
142 352 247 15 54 8 160 -14 224 -24 67 -20 113 16 183 31 58 33 68 38 197 l5
136 62 91 c117 173 108 132 111 508 3 328 1 376 -19 376 -6 0 -104 -59 -217
-132 -114 -72 -215 -133 -224 -136 -16 -4 -18 4 -18 78 l0 82 -126 214 -126
214 40 93 c136 316 203 659 230 1172 9 158 5 195 -22 195 -7 0 -53 -66 -101
-147 -180 -301 -339 -520 -520 -719 -42 -46 -84 -84 -92 -84 -9 0 -77 38 -152
84 -506 312 -764 466 -781 466 -18 0 -217 -119 -781 -466 -75 -46 -143 -84
-152 -84 -18 0 -135 126 -258 280 -98 122 -256 357 -369 548 -40 67 -79 122
-86 122 -7 0 -17 -8 -22 -17z m193 -455 c202 -307 501 -636 732 -805 34 -25
67 -59 74 -75 18 -43 4 -120 -32 -189 -37 -70 -129 -159 -164 -159 -15 0 -44
21 -84 63 -278 288 -505 725 -576 1106 -17 94 -19 131 -6 131 4 0 30 -33 56
-72z m3015 47 c0 -41 -38 -221 -65 -310 -56 -186 -174 -432 -290 -605 -124
-186 -279 -360 -320 -360 -35 0 -126 89 -164 159 -37 69 -50 146 -32 189 7 17
34 45 59 63 235 168 535 496 747 817 26 39 52 72 56 72 5 0 9 -11 9 -25z
m-1570 -465 c0 -187 -4 -340 -9 -340 -4 0 -20 9 -35 21 l-26 20 0 304 c0 302
0 303 23 318 48 34 47 39 47 -323z m105 324 l25 -16 0 -301 c0 -295 0 -301
-22 -324 -47 -51 -48 -47 -48 310 0 184 3 337 7 340 9 10 10 9 38 -9z m-245
-320 c0 -134 -3 -244 -8 -244 -4 0 -20 11 -35 25 l-27 26 0 204 0 203 27 20
c15 11 31 18 35 16 5 -3 8 -115 8 -250z m410 11 l0 -204 -27 -26 c-15 -14 -31
-25 -35 -25 -10 0 -11 484 -2 493 4 4 20 -3 35 -14 l29 -20 0 -204z m-542 5
c1 -79 -1 -147 -6 -152 -5 -5 -22 4 -40 21 -32 29 -32 30 -32 130 0 96 2 103
25 127 44 44 50 31 53 -126z m656 129 c25 -20 26 -24 26 -126 0 -105 0 -105
-32 -134 -24 -23 -33 -27 -39 -17 -10 15 -12 282 -2 291 10 11 19 8 47 -14z
m-671 -427 c169 -128 312 -232 317 -232 5 0 150 106 322 235 234 176 319 234
337 233 14 -2 26 -8 28 -14 2 -6 -128 -139 -289 -296 -351 -340 -381 -368
-401 -368 -15 0 -687 645 -687 659 0 15 16 22 40 19 14 -3 164 -109 333 -236z
m-1034 -17 c77 -153 191 -315 325 -465 41 -46 73 -88 70 -92 -10 -16 -101 -8
-125 11 -37 29 -131 166 -187 271 -51 94 -142 317 -142 345 0 32 17 11 59 -70z
m2761 71 c0 -7 -18 -62 -40 -121 -66 -177 -184 -386 -270 -476 -33 -35 -42
-39 -88 -39 -28 0 -53 4 -56 8 -3 4 29 46 70 92 134 150 260 330 330 473 36
73 54 94 54 63z m-2098 -863 c4 -206 4 -205 190 -361 79 -65 148 -125 154
-133 6 -8 35 -86 64 -174 38 -115 51 -169 46 -188 -3 -15 -10 -27 -14 -27 -4
0 -41 73 -82 161 -85 182 -74 170 -288 319 -193 135 -202 151 -202 360 l0 137
48 31 c81 52 80 54 84 -125z m1457 126 l51 -32 0 -135 c0 -77 -5 -152 -12
-175 -17 -57 -69 -105 -236 -221 -79 -55 -151 -111 -161 -125 -9 -14 -46 -87
-81 -161 -74 -157 -80 -166 -91 -148 -5 7 -9 23 -9 34 0 27 98 323 114 343 6
8 75 68 154 133 186 156 186 155 190 361 3 123 7 157 17 157 8 0 36 -14 64
-31z m-2518 -285 c134 -86 250 -162 258 -169 11 -11 12 -24 1 -79 -7 -36 -15
-66 -17 -66 -3 0 -33 24 -66 53 -367 317 -470 417 -429 417 5 0 119 -70 253
-156z m3757 137 c-3 -17 -483 -450 -499 -451 -4 0 -12 30 -19 66 -11 55 -10
68 1 79 21 20 501 325 511 325 5 0 8 -9 6 -19z m-2705 -857 c111 -47 206 -89
211 -94 16 -16 -16 -99 -57 -146 -72 -81 -161 -109 -262 -79 -77 22 -147 91
-169 166 -20 65 -20 83 -2 143 18 58 42 96 62 96 8 0 106 -39 217 -86z m1654
37 c52 -103 35 -210 -47 -291 -108 -109 -264 -103 -367 14 -41 47 -73 130 -57
146 17 17 409 179 429 177 13 -1 28 -18 42 -46z m-2142 -199 c68 -118 170
-221 261 -264 59 -28 82 -33 159 -36 79 -3 102 0 186 27 126 41 192 41 275 2
58 -28 140 -89 130 -98 -3 -3 -35 7 -72 22 -61 24 -77 27 -154 22 -68 -4 -106
-13 -190 -45 -126 -48 -181 -56 -280 -42 -172 24 -359 170 -499 388 -38 60
-37 64 35 92 86 33 93 30 149 -68z m2538 60 c26 -12 47 -25 47 -30 0 -16 -78
-124 -140 -196 -125 -145 -252 -226 -385 -247 -95 -14 -160 -5 -290 44 -147
55 -241 61 -336 23 -34 -14 -65 -23 -68 -21 -11 11 48 58 112 90 92 46 153 47
286 4 84 -27 107 -30 186 -27 77 3 100 8 159 36 92 43 193 146 261 265 50 87
50 88 86 83 20 -2 57 -13 82 -24z m-1353 -166 c41 0 93 4 115 8 l40 9 -26 -29
c-35 -39 -63 -84 -52 -84 5 0 34 9 66 20 90 32 140 24 80 -12 -16 -9 -50 -40
-78 -68 l-50 -51 -3 -77 c-1 -42 1 -83 6 -90 8 -11 26 -8 99 17 202 69 313 24
313 -126 l0 -48 -23 40 c-24 43 -75 75 -118 75 -48 0 -113 -26 -208 -83 -129
-78 -155 -85 -216 -58 -26 11 -84 43 -129 70 -160 98 -253 93 -309 -14 l-16
-30 -1 48 c-1 150 111 195 313 126 73 -25 91 -28 99 -17 5 7 7 48 6 90 l-3 77
-50 51 c-28 28 -62 59 -77 68 -62 37 -11 43 83 11 33 -12 62 -19 65 -16 3 2
-14 28 -37 57 l-42 53 39 -9 c22 -5 73 -9 114 -8z m-819 -662 l63 -77 -30 -23
c-39 -32 -119 -69 -191 -89 -78 -22 -291 -31 -379 -16 -89 15 -174 39 -174 50
0 4 39 16 88 25 125 24 332 96 448 154 54 28 102 51 105 51 4 1 35 -33 70 -75z
m1830 17 c143 -69 271 -112 416 -143 57 -12 103 -25 103 -29 0 -10 -53 -27
-144 -44 -149 -29 -362 -14 -480 33 -54 21 -133 69 -139 85 -3 9 109 157 119
157 1 0 57 -27 125 -59z m-1599 -228 c100 -68 194 -113 314 -149 82 -26 102
-28 269 -28 155 0 191 3 257 21 122 34 221 80 325 149 l96 65 29 -27 c15 -15
28 -34 28 -42 0 -16 -117 -183 -172 -246 -39 -44 -51 -42 -69 12 -20 64 -23
65 -102 24 l-72 -37 -315 0 -315 0 -72 37 c-79 40 -82 40 -102 -24 -18 -54
-30 -56 -69 -12 -54 63 -172 230 -172 245 0 11 48 69 56 69 2 0 41 -25 86 -57z
m-103 -270 c49 -65 108 -136 131 -158 35 -34 47 -40 85 -40 39 0 50 5 89 44
l44 43 342 0 342 0 36 -35 c103 -98 150 -75 330 166 40 54 78 97 85 97 33 0
36 -22 10 -94 -54 -149 -123 -255 -201 -310 -60 -41 -96 -38 -234 23 -156 69
-247 91 -368 91 -121 0 -212 -22 -368 -91 -71 -31 -132 -51 -154 -51 -95 -1
-214 142 -284 342 -23 65 -20 90 12 90 7 0 53 -53 103 -117z m-240 35 c21 -71
98 -226 145 -292 52 -73 116 -128 182 -158 67 -29 124 -20 269 42 276 119 396
119 668 0 65 -28 141 -54 168 -57 132 -16 268 104 373 328 24 52 50 113 57
137 10 34 17 42 36 42 12 0 23 -6 23 -12 0 -7 -16 -56 -35 -108 -149 -402
-227 -496 -401 -488 -66 3 -83 9 -235 85 -193 96 -239 113 -319 113 -76 0
-166 -32 -342 -124 -128 -65 -143 -71 -211 -74 -169 -9 -249 84 -386 448 -28
74 -51 140 -51 147 0 7 11 13 23 13 19 0 26 -8 36 -42z m901 -1239 c0 -225 -3
-409 -8 -409 -4 0 -20 11 -35 25 l-27 26 0 369 0 369 26 20 c15 11 30 18 35
15 5 -3 9 -189 9 -415z m113 393 c16 -14 17 -45 17 -383 l0 -368 -27 -25 c-15
-14 -30 -23 -35 -20 -9 6 -11 808 -2 817 8 7 21 1 47 -21z m-253 -372 c0 -165
-3 -300 -7 -300 -4 0 -20 12 -35 27 l-28 27 0 248 0 249 26 24 c15 14 31 25
35 25 5 0 9 -135 9 -300z m384 275 l26 -24 0 -249 0 -248 -28 -27 c-15 -15
-31 -27 -35 -27 -4 0 -7 135 -7 300 0 165 4 300 9 300 4 0 20 -11 35 -25z
m-516 -260 c1 -98 -1 -182 -6 -187 -5 -5 -23 4 -40 21 l-32 29 0 136 c0 135 0
135 27 161 16 14 32 24 38 22 6 -2 11 -74 13 -182z m655 160 c27 -26 27 -26
27 -161 l0 -136 -30 -29 c-16 -17 -34 -28 -40 -24 -11 7 -14 357 -3 368 10 11
17 8 46 -18z"/>
</g>
</svg>
